<?xml version="1.0" encoding="UTF-8"?><svg id="a" xmlns="http://www.w3.org/2000/svg" viewBox="0 0 83.3 96.39"><defs><style>.b,.c,.d,.e{stroke:#3c3c3b;stroke-miterlimit:10;stroke-width:.25px;}.b,.d{fill:none;}.f{fill:#63606c;}.c{fill:#7ffffd;}.c,.d,.e{stroke-linecap:round;}.e{fill:#706f6f;}</style></defs><g><path class="e" d="M16.86,28.79l-9.77,9.77c-1.71,1.71-2.88,3.9-3.35,6.28L.47,61.42c-.78,3.96-.23,8.06,1.57,11.67l7.88,15.86c2.23,4.48,6.8,7.31,11.8,7.31h14.22c1.42,0,2.83-.27,4.15-.8l9-3.6c2.53-1.01,5.23-1.53,7.95-1.52l12.92,.03c3.31,0,6.5-1.3,8.85-3.64l1.62-1.61c2.2-2.19,3.17-5.35,2.56-8.4l-4.78-24.17c-.43-2.19-1.52-4.21-3.11-5.77l-15.15-14.89c-2.35-2.31-5.48-3.65-8.77-3.76l-7.24-.25c-1.55-.05-3.1-.2-4.63-.45l-12.23-1.96c-3.74-.6-7.55,.63-10.23,3.31Z"/><polygon class="c" points="45.86 26.98 50.65 6.16 57.61 .2 61.54 8.9 62.76 10.13 60.01 14.21 56.92 22.8 62.93 20.3 65.36 25.19 61.39 30.41 69.18 32.22 67.91 38.92 51.73 45.93 49.41 45.74 48.61 45.08 46.82 45.61 44.07 44.86 43.57 43.71 39.01 44.2 36.47 41.79 35.58 40.56 35.31 36.47 36.33 36.01 26.38 24.76 26.81 18.41 33.52 20.23 33.83 19.1 38.41 20.93 41.31 28.6 43.83 24.79 45.86 26.98"/><polyline class="d" points="41.31 28.6 40.42 31.55 41.82 32.93"/><polyline class="d" points="45.86 26.98 48.46 29.58 47.33 31.97 48.19 32.67 48 33.69"/><polyline class="c" points="33.52 20.23 35.38 21.95 35.81 24.69 37.6 25.15"/><polyline class="c" points="28.63 18.91 29.5 20.48 31.18 20.79"/><polyline class="c" points="36.33 36.01 37.84 35.56 38.37 37.03 37.89 38.66"/><polyline class="c" points="61.55 20.87 61.55 22.69 60.69 23.67 60.95 25"/><polyline class="c" points="69.18 32.22 67.14 33.2 66.98 34.62 67.76 35.17"/><polyline class="c" points="61.39 30.41 58.16 31.15 57.27 32.46"/><polyline class="c" points="61.54 8.9 58.74 9.21 57.63 11.88 57.98 13.09"/><polyline class="c" points="56.16 1.45 56.92 3.35 56.16 4.13 56.54 4.85"/><polyline class="c" points="47.49 19.87 49.8 18.53 49.97 17.05 50.98 16.84"/><polyline class="d" points="53.17 39.44 53.78 37.57 52.77 36.69 52.53 35.56 53.45 34.87"/><path class="f" d="M77.74,60.94s-12.15-12.27-20.96-4.61c-4.15,3.61-13.98-.68-15.87-.49-7.8,.78-.91-9.14-.91-9.14,0,0,2.36-1.13,2.99-1.75s4.2-3.07,4.2-3.07c0,0,1.22-1.13,2.87-1.54s9.07-2.75,9.07-2.75c0,0,4.4-1.44,7.85,1.83,3.45,3.27,8.08,7.42,8.73,8.62,.65,1.2,1.3,2.82,1.56,6.47l.47,6.43Z"/><g><polygon class="c" points="65.37 78.56 77.23 81.89 80.48 86.06 75.36 88.09 74.62 88.76 72.34 87.06 67.48 85.05 68.76 88.58 65.87 89.85 62.97 87.42 61.72 91.86 57.89 90.95 54.29 81.44 54.46 80.1 54.86 79.66 54.61 78.62 55.11 77.06 55.78 76.79 55.62 74.15 57.08 72.76 57.82 72.28 60.18 72.23 60.42 72.83 67.17 67.4 70.82 67.82 69.58 71.64 70.23 71.85 69.05 74.44 64.55 75.9 66.68 77.46 65.37 78.56"/><polyline class="d" points="64.55 75.9 62.88 75.31 62.05 76.08"/><polyline class="d" points="65.37 78.56 63.79 79.99 62.45 79.28 62.03 79.76 61.44 79.62"/><polyline class="c" points="69.58 71.64 68.55 72.66 66.95 72.83 66.64 73.86"/><polyline class="c" points="70.48 68.86 69.55 69.31 69.33 70.27"/><polyline class="c" points="60.42 72.83 60.64 73.71 59.77 73.98 58.85 73.66"/><polyline class="c" points="68.46 87.77 67.41 87.72 66.88 87.2 66.1 87.32"/><polyline class="c" points="61.72 91.86 61.21 90.66 60.39 90.53 60.06 90.97"/><polyline class="c" points="62.97 87.42 62.63 85.54 61.9 84.99"/><polyline class="c" points="75.36 88.09 75.26 86.47 73.75 85.75 73.04 85.93"/><polyline class="c" points="79.8 85.19 78.69 85.57 78.25 85.12 77.83 85.32"/><polyline class="c" points="69.42 79.7 70.13 81.06 70.98 81.2 71.07 81.79"/><polyline class="d" points="57.99 82.44 59.05 82.84 59.58 82.29 60.24 82.18 60.61 82.73"/><line class="b" x1="67.48" y1="85.05" x2="64.59" y2="83.6"/></g><line class="b" x1="56.92" y1="22.8" x2="54.64" y2="27.91"/><path class="f" d="M3.52,45.93s12.75,27.7,29.6,19.05c7.93-4.07,20.84,8.56,23.79,9.22,12.16,2.75-2.82,16.35-2.82,16.35,0,0-4.09,.72-5.33,1.45s-7.77,3.11-7.77,3.11c0,0-2.36,1.31-5.04,1.16-2.68-.16-14.99,0-14.99,0,0,0-7.31,.18-11.03-7.31-3.72-7.49-8.81-17.13-9.25-19.57S0,63.81,1.28,57.34l2.25-11.41Z"/></g><polygon class="c" points="6.71 52.29 5.92 56.33 8.21 60.7 11.78 57.77 12.49 54.17 10.77 48.96 6.71 52.29"/><polygon class="c" points="59.94 46.42 59.15 50.46 61.44 54.83 65.01 51.9 65.72 48.3 64 43.09 59.94 46.42"/><polygon class="c" points="55.5 53.12 54.7 57.16 57 61.52 60.57 58.6 61.28 54.99 59.56 49.78 55.5 53.12"/><polygon class="c" points="19.18 84.22 18.74 86.43 21.38 89.09 24.63 87.75 25.02 85.78 22.88 82.69 19.18 84.22"/></svg>