<?xml version="1.0" encoding="UTF-8"?>
<svg id="Calque_1" data-name="Calque 1" xmlns="http://www.w3.org/2000/svg" viewBox="0 0 158.95 64.42">
  <defs>
    <style>
      .cls-1 {
        fill: #fff;
      }

      .cls-2 {
        fill: #cee9ef;
      }

      .cls-3 {
        fill: #e9f4f6;
      }
    </style>
  </defs>
  <g>
    <path class="cls-3" d="m151.99,45.02c-5.77,4.98-13.86,3.79-15.85,3.45-3.14,4.82-6.53,7.61-8.8,9.17-13.68,9.39-31.4,5.01-38.78,3.19-4.08-1.01-7.33-2.21-9.42-3.06-1.59.99-6.75,3.91-13.57,3.04-4.45-.57-7.63-2.5-9.24-3.65-10.12,5.11-18.96,6.46-24.32,6.85-8.85.64-19.78,1.49-26.72-5.72-.81-.84-5.97-6.38-5.21-14.04.14-1.45.96-7.66,6.13-11.12,3.48-2.33,7.34-2.33,8.25-2.33,1.23,0,3,0,5.09.76,1.78.65,3.04,1.59,3.31,1.27.26-.3-.88-1.2-1.32-3.02-.13-.53-.53-2.15.23-3.45,1.25-2.14,4.52-2.08,4.92-2.07,2.74.08,4.39,1.79,4.96,1.2.44-.45-.56-1.41-.53-3.3,0-.3.06-2.28,1.46-3.69,1.39-1.41,3.53-1.73,5.14-1.38,2.19.48,2.89,2.07,3.81,1.69.97-.39.45-2.27,1.24-4.88.24-.78,1.31-4.5,4.38-5.92,3.52-1.62,7.09.27,7.61.55,3.56,1.96,4.46,5.69,6.09,5.33.99-.22.81-1.57,2.3-2.4,1.53-.86,3.6-.49,4.96.25,2.91,1.58,2.77,5,4.03,5.06,1.58.08,1.75-5.3,5.11-9.74C82.01.77,90.3.14,90.93.1c.54-.03,8.93-.42,14.66,5.51,2.95,3.05,4.32,6.86,4.66,7.86,1.63,4.84.77,7.78,2.4,8.51,1.84.82,3.48-2.75,8.79-4.36,1.4-.43,4.88-1.48,8.6-.05,4.49,1.73,6.4,5.97,6.56,6.33,1.44,3.33.23,5.14,1.69,6.17,1.95,1.37,4.46-1.67,9.28-.84.85.15,2.85.51,4.73,2.03.34.27,3.9,3.24,3.55,7.47-.27,3.19-2.6,5.21-3.86,6.29Z"/>
    <path class="cls-1" d="m152.36,31.19c-.59-.49-2.37-1.64-4.77-2.05-2.54-.44-4.44.19-5.96.69-1.39.46-2.39.79-3.29.16-.72-.51-.76-1.2-.82-2.25-.06-1.01-.14-2.26-.84-3.89-.2-.47-2.12-4.65-6.6-6.38-3.74-1.45-7.18-.4-8.65.04-2.73.83-4.51,2.18-5.81,3.17-1.25.95-2.07,1.57-2.92,1.19-.86-.38-.99-1.41-1.21-3.12-.18-1.41-.41-3.17-1.15-5.34-.48-1.41-1.89-5.01-4.67-7.89C99.85-.46,91.29,0,90.93.02c-7.14.43-11.64,4.9-13.74,6.98-2.3,2.27-3.74,4.57-4.61,6.19-.43-.55-2-2.42-4.71-2.93-.61-.12-2.32-.41-4.22.43-1.45.65-2.31,1.64-2.71,2.17-.29-.94-1.27-3.66-4-5.41-3.75-2.41-7.86-1.11-8.99-.76-3.23,1.02-5.18,3.17-6.06,4.33-1.32,1.75-1.9,3.47-2.17,4.55-.67-.2-1.78-.45-3.14-.32-.8.07-3.08.29-4.76,2.17-1.37,1.53-1.58,3.32-1.62,4.01-2.34-.14-5.63-.12-9.45.62-2.63.51-6.16,1.17-9.49,3.17C3.79,29.67,1.1,38.43,1.49,38.68c.23.15,1.31-2.82,4.64-4.54,2.7-1.39,6.58-1.8,9.51-.64.55.22,2.86,1.2,4.53,1.92,1.13.49,1.35.6,1.78.72.83.24,2.7.75,4.79.23,4.15-1.04,5.96-5.35,6.22-6.01,1.16-.18,5.13-.92,8.07-4.43,1.65-1.96,2.31-4,2.6-5.21.79.7,2.15,1.74,4.11,2.41.91.31,3.66,1.21,6.64.31,4.92-1.49,6.63-6.75,6.79-7.28.38-.36,2.11-1.93,4.72-1.89.6,0,2.46.12,4,1.45,2.05,1.76,1.81,4.19,2.68,4.25.83.05,1.47-2.07,2.8-5.15,1.19-2.76,2.55-5.37,3.24-6.49,3.56-5.72,11.4-6.95,12.08-7.05.79-.11,9.11-1.17,14.8,4.38.98.96,3.33,3.97,4.64,7.83.73,2.16.96,3.9,1.14,5.31.22,1.7.37,2.83,1.31,3.25.95.42,1.85-.26,3.09-1.21,1.29-.98,3.06-2.32,5.75-3.14,1.45-.44,4.85-1.47,8.54-.05,4.42,1.71,6.31,5.82,6.51,6.29.69,1.6.77,2.84.83,3.83.06,1.06.11,1.82.89,2.37.96.68,2.06.32,3.44-.14,1.51-.5,3.38-1.12,5.88-.69.76.13,2.79.48,4.69,2.01,3.38,2.72,3.49,7.41,3.52,7.4.03,0,.02-4.67-3.41-7.53Z"/>
    <path class="cls-2" d="m154.39,34.14c-2.21-1.33-5.34,3.03-10.33,4.77-7.31,2.55-15.03,3.61-22.97,3.25-6.35-.28-13.16-.87-19.22-2.87-6.09-2.02-11.26-5.81-17.96-5.44-12.87.71-22.99,10.42-35.26,13.23-9.3,2.13-18.73-.69-26.01-6.5-1.02.72-2.58,1.69-4.64,2.46-2.5.93-6.33,2.37-10.26.83-3.77-1.48-5.55-4.9-6.13-6.14-.73,1.7-1.8,4.86-1.51,8.84,0,0,.49,6.65,5.19,11.71,6.76,7.25,18.01,6.35,26.72,5.72,5.36-.39,14.2-1.73,24.32-6.85,1.61,1.15,4.8,3.08,9.24,3.65,6.82.87,11.98-2.05,13.57-3.04,2.09.85,5.34,2.05,9.42,3.06,7.38,1.83,25.1,6.21,38.78-3.19,2.28-1.56,5.67-4.35,8.8-9.17,2,.35,10.08,1.53,15.85-3.45,1.21-1.04,3.62-3.09,3.86-6.29.03-.37.23-3.57-1.46-4.59Z"/>
  </g>
  <path class="cls-1" d="m86.97,25.9c5.37-1.39,10.02-.29,11.7.13,3.84.96,6.69,2.62,8.42,3.82.1-1,.93-8.41,7.52-12.77,6.69-4.42,13.88-2.1,15.28-1.65,8.26,2.66,11.49,10.06,11.96,11.2,1.01-.27,5.96-1.49,10.77,1.36,1.29.77,6.44,4.13,6.33,9.72-.12,6.29-6.77,9.48-7.23,9.69-5.07,2.34-11.49,1.01-16.29-3.33-3,3.85-6.01,6.19-8.04,7.55-17.89,11.96-41.28,2.25-43.82,1.15-1.88-.81-3.36-1.59-4.28-2.09-1.96,1.4-6.87,4.45-13.43,4.15-2.5-.12-10.38-.48-13.01-6.18-1.59-3.44-.69-7.56,1.22-10.38,2.63-3.86,6.77-4.66,7.89-4.86,6-1.06,10.47,2.72,11.11,3.27,1.05-1.75,5.43-8.6,13.9-10.8Z"/>
</svg>