<?xml version="1.0" encoding="UTF-8"?><svg id="a" xmlns="http://www.w3.org/2000/svg" viewBox="0 0 111.56 55.68"><defs><style>.b{fill:#84151b;}.b,.c,.d{stroke:#3c3c3b;stroke-linecap:round;stroke-miterlimit:10;stroke-width:.25px;}.c{fill:#cbbba0;}.d{fill:#ffb4b8;}</style></defs><g><path class="c" d="M24.75,2.88s-1.04-1.73-3.91-.47c0,0,.82,.8,.38,1.69,0,0,.93-1.27,3.53-1.22Z"/><path class="c" d="M24.09,1.33s-1.94-2.46-5.3,.31c0,0,1.34,1.05,1.06,2.58,0,0,.81-2.27,4.25-2.88Z"/><path class="c" d="M20.36,.38s-1.94-.79-3.94,2.06c0,0,1.21,.16,1.3,1.17,0,0,.17-1.65,2.64-3.23Z"/></g><path class="c" d="M40.54,20.25c-3.08-1.03-5.41-3.27-5.41-3.27l2.74,1.09,2.67,2.18Z"/><path class="c" d="M16.82,27.72c-1.85-1.49-2.1-5.42-2.1-5.42l1.3,2.25,.8,3.17Z"/><g><g><g><path class="d" d="M20.65,50.73s18.65-15.26,30.11-15.86c0,0-9.63-9.76-11.82-10.61l-14.64-8.96s-7.65-4.67-10.93-4.74l-2.36,3.39,5.02,10.6s4.83,21.24,4.62,26.19Z"/><path class="d" d="M53.42,33.75c0-.26,33.04-17.96,51.65-18.15,0,0-42.09-12.45-50.12-11.6l-11.03-.13-24.72,4.95,15.83,7.92,2.74,1.09,2.26,1.69,12.84,12.33,.54,1.89Z"/><path class="b" d="M109.65,15.38c-.8-1.69-9.77-5.16-9.77-5.16l-22.6-6.11-1.66-1.43-3.01,.17L46,.82l-2.9-.69-1.41,.3L19.98,5.49c1.56-.47,2.45-1.06,2.51-1.55,.47-3.66-5.02-1.94-5.02-1.94h-.84l-.8,.55-2.95,2.8c-.18,.17-.4,.31-.63,.41l-.6,.25c-.53,.22-.95,.65-1.14,1.2l-.11,.31c-.07,.19-.17,.37-.3,.52L3.76,15.12c-.42,.48-.98,.81-1.6,.96l-2.03,.49v4.4l1-.62c.79-.49,1.62-.91,2.49-1.25l3.52-1.37c.48-.19,1.04-.06,1.39,.31l1.91,2.02c1.15,.97,3.45,9.84,4.19,12.8,.16,.62,.28,1.24,.37,1.87l2.36,16.08,2.13,4.49s.85-3.18,1.14-4.58c.29-1.4-3.82-23.01-3.82-23.01l-.8-3.17-1.41-2.45-3.61-8.15,2.36-3.39,.65,.16c4.29,.09,23.56,12.68,23.56,12.68,2.51,1.08,13.18,11.47,13.18,11.47l3.83,2.97-1.71-5.98-1.05-1.15-11.8-11.17-2.26-1.69-2.99-1.19-15.59-7.83L43.92,3.87l10.37,.16c5.53-.46,23.01,3.97,23.01,3.97l27.77,7.6,6.15,1.77-1.57-1.99Z"/><path class="d" d="M.29,20.86l.84-.52c.33-.42,2.49-1.25,2.49-1.25l3.52-1.37c.8-.31,1.39,.31,1.39,.31l1.91,2.02c1.66,1.76,4.57,14.68,4.57,14.68l2.36,16.08C10.41,28.95,4.25,24.86,.22,25.41l-.1-4.44"/></g><path class="c" d="M77.23,4.17s-3.94,.12-4.67-1.26l3.01-.17,1.66,1.43Z"/><path class="c" d="M45.97,.82s-4.58,.79-4.58-.32l1.68-.37,2.9,.69Z"/><path class="c" d="M104.88,15.47s2.42-1.78,4.2-.7l1.95,2.47-6.15-1.77Z"/><path class="c" d="M52.69,31.7s-2.22,0-2.12,3.01l3.83,2.97-1.71-5.98Z"/><path class="c" d="M17.38,50.82s1.9-1.57,3.27-.09l-1.14,4.58-2.13-4.49Z"/></g><path class="c" d="M40.54,20.25c-3.08-1.03-5.41-3.27-5.41-3.27l2.74,1.09,2.67,2.18Z"/><path class="c" d="M16.92,27.96c-1.85-1.49-2.1-5.42-2.1-5.42l1.3,2.25,.8,3.17Z"/></g></svg>