<?xml version="1.0" encoding="UTF-8"?><svg id="a" xmlns="http://www.w3.org/2000/svg" viewBox="0 0 28.36 120.97"><defs><style>.b{fill:#3c3c3b;}.b,.c,.d,.e,.f,.g{stroke:#3c3c3b;stroke-miterlimit:10;stroke-width:.25px;}.b,.c,.e,.f,.g{stroke-linecap:round;}.c{fill:#84151b;}.d,.e{fill:#cbbba0;}.f{fill:#9d151b;}.g{fill:#ffb4b8;}</style></defs><g><g><path class="e" d="M10.81,87.39s0,2.16-1.53,6.42c0,0-1.38,.22-1.77-6.38,0,0-.36,3.81-1.24,5.89,0,0-2.34-1.14-2.02-6.21-.1,0,3.98,.65,6.55,.27Z"/><path class="e" d="M17.37,87.6s0,2.16,1.53,6.42c0,0,1.38,.22,1.77-6.38,0,0,.36,3.81,1.24,5.89,0,0,2.34-1.14,2.02-6.21,.1,0-3.98,.65-6.55,.27Z"/><path class="f" d="M21.02,9.7s-2.21,1.22-1.86,3.03"/><path class="f" d="M15.37,1.6s.1,.31,0,.45,0-.45,0-.45Z"/><path class="f" d="M16.17,5.06s.7,1.7,1.55,2.23-2.4-.15-1.55-2.23Z"/><path class="c" d="M9.85,12.64l-.37,.05-.93,.11c-.13,.02-.25,.08-.33,.18l-1.41,1.69-1.23,1.47c-.1,.12-.18,.27-.22,.43l-.74,2.69c-.06,.21-.18,.39-.35,.52l-3.52,2.77,1.79-2.25c.38-.48,.58-1.06,.59-1.67v-1.54c0-.42,.14-.83,.39-1.18l2.38-3.32c.16-.22,.27-.46,.35-.72l.17-.61c.07-.24,.17-.47,.31-.67l1.04-1.52c.18-.27,.3-.58,.33-.9l.1-1.02c.02-.25,.13-.49,.3-.68l2.69-2.89c.12-.12,.2-.28,.24-.44l.41-1.79c.03-.13,.09-.26,.17-.36l.17-.21c.34-.42,.85-.67,1.39-.66h1.23c.54,0,1.05,.24,1.39,.66l.17,.21c.08,.11,.14,.23,.17,.36l.41,1.79c.04,.17,.12,.32,.24,.44l2.69,2.89c.17,.19,.28,.42,.3,.68l.1,1.02c.03,.32,.14,.63,.33,.9l1.04,1.52c.14,.21,.25,.43,.31,.67l.17,.61c.07,.26,.19,.5,.35,.72l2.38,3.32c.25,.34,.38,.75,.38,1.18v1.54c0,.61,.21,1.2,.59,1.67l1.79,2.25-3.52-2.77c-.17-.13-.29-.32-.35-.52l-.74-2.69c-.04-.16-.12-.3-.22-.43l-1.23-1.47-1.41-1.69c-.08-.1-.2-.16-.33-.18l-.93-.11-.37-.05"/><path class="e" d="M9.21,12.72c.34-1.8-1.86-3.03-1.86-3.03l-.61,.9s-.46,.77-.48,1.28c0,0-.14,.55-.35,.72l-2.38,3.32s-.42,.56-.38,1.18v1.54s0,.93-.59,1.67l-1.79,2.25,3.52-2.77s.28-.27,.35-.52l.74-2.69s.11-.38,.22-.43l2.64-3.17s.12-.16,.33-.18l.66-.08Z"/><path class="b" d="M13,1.6s-.1,.31,0,.45,0-.45,0-.45Z"/><path class="b" d="M12.19,5.06s-.7,1.7-1.55,2.23,2.4-.15,1.55-2.23Z"/><path class="c" d="M10.28,11.14l-.27,1.16c-.03,.13-.57,1.09-.57,1.09-.2,.34-.31,.71-.32,1.1l-.11,2.71s1.01-2.69,1.07-2.74c.06-.06,1.58-1.97,1.58-1.97,0,0-.85,13.92-3.36,20.98-.45,1.25-1.76,1.97-3.05,1.66l-2.57-.62v4.17l4.12,2.56s3.7,2.22-.94,14c-.06,.15-.14,.3-.22,.44-.54,.91-2.67,5.06-.49,10.93,.13,.34,.19,.71,.16,1.07-.13,1.45-.35,5.62,1.26,8.56,.36,.66,.52,1.4,.54,2.15,.03,.93-.06,2-.55,2.31-.92,.58-2.29,5.41-2.27,6.69,.02,1.28,3.23,0,3.23,0,0,0,2.18,1.09,3.32,.27h6.69c1.14,.82,3.32-.27,3.32-.27,0,0,3.22,1.28,3.23,0,.02-1.28-1.35-6.11-2.27-6.69-.5-.31-.58-1.38-.55-2.31,.02-.75,.18-1.49,.54-2.15,1.61-2.94,1.4-7.11,1.26-8.56-.03-.36,.03-.73,.16-1.07,2.19-5.87,.06-10.02-.49-10.93-.08-.14-.16-.29-.22-.44-4.64-11.78-.94-14-.94-14l3.32-2.07v-4.47l-1.78,.43c-1.29,.31-2.61-.4-3.05-1.66-2.51-7.06-3.36-20.98-3.36-20.98,0,0,1.52,1.91,1.58,1.97,.06,.06,1.07,2.74,1.07,2.74l-.11-2.71c-.02-.39-.13-.77-.32-1.1,0,0-.54-.96-.57-1.09l-.27-1.16"/><path class="e" d="M19.15,12.72c-.34-1.8,1.86-3.03,1.86-3.03l.61,.9s.46,.77,.48,1.28c0,0,.14,.55,.35,.72l2.38,3.32s.42,.56,.38,1.18v1.54s0,.93,.59,1.67l1.79,2.25-3.52-2.77s-.28-.27-.35-.52l-.74-2.69s-.11-.38-.22-.43l-2.64-3.17s-.12-.16-.33-.18l-.66-.08Z"/><path class="b" d="M16.17,5.06s.7,1.7,1.55,2.23-2.4-.15-1.55-2.23Z"/><path class="b" d="M15.32,1.6s.1,.31,0,.45,0-.45,0-.45Z"/><path class="g" d="M24.89,39.18l-3.32,2.07s-1.77,.79-1.3,5.81c0,0,1.72-2.93,4.63-3.49v-4.38Z"/><path class="g" d="M6.75,41.25l-4.08-2.54v4.76c3.36,.14,5.38,3.59,5.38,3.59,.46-5.02-1.3-5.81-1.3-5.81Z"/></g><path class="c" d="M9.85,66.52c-.34,6.22,.9,16.64,.9,16.64l.17,4.56,1.74,13.51c.1,.82,.27,1.62,.53,2.4,1.39,4.15,.17,16.99,.17,16.99,0,0,4.75-4.98,3.5-17.91-1.26-12.93,2.19-37,2.19-37,.07-2.89-.53-4.66-1.33-5.74"/><path class="f" d="M9.86,66.36c0,.06,0,.11,0,.17"/><path class="d" d="M14.01,16.81s1.73,.05,1.99,3.88c0,0-1.48-3.02-2.07-1.4"/><path class="d" d="M14.01,22.55s1.73,.05,1.99,3.88c0,0-1.48-3.02-2.07-1.4"/><path class="d" d="M14.01,28.29s1.73,.05,1.99,3.88c0,0-1.48-3.02-2.07-1.4"/><path class="d" d="M14.36,34.02s1.73,.05,1.99,3.88c0,0-1.48-3.02-2.07-1.4"/><path class="d" d="M14.36,40.42s1.73,.05,1.99,3.88c0,0-1.48-3.02-2.07-1.4"/><path class="d" d="M14.36,46.16s1.73,.05,1.99,3.88c0,0-1.48-3.02-2.07-1.4"/><path class="d" d="M14.46,52.23s1.73,.05,1.99,3.88c0,0-1.48-3.02-2.07-1.4"/><path class="d" d="M14.46,62.1s1.73,.05,1.99,3.88c0,0-1.48-3.02-2.07-1.4"/><path class="d" d="M14.36,68.93s1.73,.05,1.99,3.88c0,0-1.48-3.02-2.07-1.4"/><path class="d" d="M14.36,75.76s1.73,.05,1.99,3.88c0,0-1.48-3.02-2.07-1.4"/><path class="d" d="M14.36,83.53s1.73,.05,1.99,3.88c0,0-1.48-3.02-2.07-1.4"/><path class="d" d="M13.87,90.72s1.16,.03,1.34,2.61c0,0-.99-2.03-1.39-.94"/><path class="d" d="M13.87,96.64s1.16,.03,1.34,2.61c0,0-.99-2.03-1.39-.94"/><path class="d" d="M14.77,102.56s1.16,.03,1.34,2.61c0,0-.99-2.03-1.39-.94"/><path class="d" d="M14.98,110.45s.79,.02,.91,1.77c0,0-.67-1.37-.94-.64"/></g><path class="e" d="M9.85,12.64s.91,.32,.97,.91l-.74,.91-1.07,2.74,.11-2.71s-.07-.65,.73-1.85Z"/><path class="e" d="M18.68,12.96c-.35-.52-1.01,.76-1.01,.76l.61,.75,1.07,2.74-.11-2.71s.06-.61-.56-1.54Z"/></svg>