<?xml version="1.0" encoding="UTF-8"?>
<svg id="Calque_1" data-name="Calque 1" xmlns="http://www.w3.org/2000/svg" xmlns:xlink="http://www.w3.org/1999/xlink" viewBox="0 0 332.49 563.19">
  <defs>
    <style>
      .cls-1 {
        fill: #613433;
      }

      .cls-1, .cls-2, .cls-3, .cls-4, .cls-5, .cls-6, .cls-7, .cls-8, .cls-9, .cls-10, .cls-11, .cls-12, .cls-13, .cls-14, .cls-15, .cls-16 {
        stroke-miterlimit: 10;
      }

      .cls-1, .cls-2, .cls-3, .cls-4, .cls-5, .cls-6, .cls-7, .cls-9, .cls-11, .cls-12, .cls-14, .cls-15 {
        stroke: #1e1e1c;
      }

      .cls-2 {
        fill: #fff;
      }

      .cls-3 {
        fill: #f6f7f5;
      }

      .cls-4 {
        fill: #facdad;
      }

      .cls-17 {
        fill: #1ba238;
      }

      .cls-18 {
        fill: #8cc68e;
      }

      .cls-19 {
        fill: #e73e3b;
      }

      .cls-5 {
        fill: #6db52f;
      }

      .cls-6 {
        fill: #fae6f1;
      }

      .cls-7 {
        fill: #71b63d;
      }

      .cls-20 {
        fill: #1e1e1c;
      }

      .cls-8 {
        fill: #050606;
        stroke: #090a0b;
      }

      .cls-21 {
        fill: #f6d5e8;
      }

      .cls-22 {
        fill: #f7d0d0;
      }

      .cls-9 {
        fill: #881813;
      }

      .cls-23 {
        fill: #f2d4e8;
      }

      .cls-10 {
        fill: url(#Dégradé_sans_nom_30-2);
        stroke: url(#Dégradé_sans_nom_2-2);
      }

      .cls-11 {
        fill: #f4f3e5;
      }

      .cls-24 {
        fill: #72b95d;
      }

      .cls-12 {
        fill: #f2f7f1;
        stroke-width: 2px;
      }

      .cls-13 {
        fill: url(#Dégradé_sans_nom_30-3);
        stroke: url(#Dégradé_sans_nom_2-3);
      }

      .cls-14 {
        fill: none;
      }

      .cls-15 {
        fill: #f9ccad;
      }

      .cls-16 {
        fill: url(#Dégradé_sans_nom_30);
        stroke: url(#Dégradé_sans_nom_2);
      }
    </style>
    <linearGradient id="Dégradé_sans_nom_30" data-name="Dégradé sans nom 30" x1="130.72" y1="94.55" x2="262.21" y2="94.55" gradientUnits="userSpaceOnUse">
      <stop offset="0" stop-color="#d3161a"/>
      <stop offset=".26" stop-color="#d31819"/>
      <stop offset=".44" stop-color="#d32118"/>
      <stop offset=".59" stop-color="#d33116"/>
      <stop offset=".73" stop-color="#d34713"/>
      <stop offset=".87" stop-color="#d3630f"/>
      <stop offset=".99" stop-color="#d3850b"/>
      <stop offset="1" stop-color="#d3890b"/>
    </linearGradient>
    <linearGradient id="Dégradé_sans_nom_2" data-name="Dégradé sans nom 2" x1="130.22" y1="94.55" x2="262.71" y2="94.55" gradientUnits="userSpaceOnUse">
      <stop offset="0" stop-color="#fff"/>
      <stop offset="1" stop-color="#1e1e1c"/>
    </linearGradient>
    <linearGradient id="Dégradé_sans_nom_30-2" data-name="Dégradé sans nom 30" x1="95.16" y1="185.28" x2="210.23" y2="185.28" gradientTransform="translate(-15.6 -9.28)" xlink:href="#Dégradé_sans_nom_30"/>
    <linearGradient id="Dégradé_sans_nom_2-2" data-name="Dégradé sans nom 2" x1="94.66" y1="185.28" x2="210.73" y2="185.28" gradientTransform="translate(-15.6 -9.28)" xlink:href="#Dégradé_sans_nom_2"/>
    <linearGradient id="Dégradé_sans_nom_30-3" data-name="Dégradé sans nom 30" x1="166.37" y1="243.49" x2="265.83" y2="243.49" gradientTransform="translate(468.18 19.37) rotate(90)" xlink:href="#Dégradé_sans_nom_30"/>
    <linearGradient id="Dégradé_sans_nom_2-3" data-name="Dégradé sans nom 2" x1="165.87" y1="243.49" x2="266.33" y2="243.49" gradientTransform="translate(468.18 19.37) rotate(90)" xlink:href="#Dégradé_sans_nom_2"/>
  </defs>
  <g>
    <path class="cls-3" d="m331.99,471.16c0-6.15-4.45-11.26-10.31-12.29,3.74-7.15,5.91-15.64,5.91-24.75,0-25.41-16.87-46-37.7-46-.1,0-.21,0-.31.02-2.4-24.48-19.48-43.46-40.22-43.46-5.34,0-10.43,1.27-15.11,3.55-11.39-17.77-28.24-29.01-47.05-29.01-22.92,0-42.95,16.72-53.72,41.63-1.67-1.05-3.58-1.64-5.6-1.64-4.93,0-9.19,3.5-11.2,8.56-4.47-5.31-10.58-8.56-17.31-8.56-13.17,0-23.95,12.52-24.77,28.35-4.29-2.86-9.2-4.48-14.42-4.48-16.61,0-30.08,16.44-30.08,36.72s13.47,36.71,30.08,36.71c6.82,0,13.1-2.76,18.14-7.41,10.24,5.25,23.43,8.85,38.1,10-8.18,8.09-13.36,20.05-13.36,33.4,0,24.4,17.27,44.15,38.56,44.15,13.33,0,25.09-7.75,32-19.55,1.72.24,3.45.36,5.22.36,6.16,0,12.08-1.43,17.62-4.07,5.91,2.63,12.37,4.07,19.11,4.07,9.13,0,17.71-2.65,25.17-7.27.09.18.18.36.27.54-4.53,3.39-7.25,7.74-7.25,12.49,0,7.09,6.07,13.29,15.13,16.68,2.44.92,5.1,1.64,7.92,2.11,1.42.24,2.89.42,4.39.52,1.21.09,2.43.14,3.68.14,1.59,0,3.15-.07,4.67-.21,14.87-1.41,26.31-9.39,26.45-19.06,7.12-6.61,12.26-16.23,14.13-27.32.39.03.78.05,1.18.05,6.89,0,12.48-5.59,12.48-12.48,0-.25-.01-.5-.03-.75,4.81-1.73,8.23-6.33,8.23-11.74Z"/>
    <ellipse class="cls-6" cx="62.41" cy="477.4" rx="61.37" ry="42.24"/>
    <path class="cls-11" d="m59.36,434.73c0,11.42-6.55,20.67-14.63,20.67s-14.63-9.25-14.63-20.67c0-3.94.78-7.63,2.14-10.76,2.57-5.94,7.2-9.91,12.49-9.91,8.08,0,14.63,9.25,14.63,20.67Z"/>
    <ellipse class="cls-11" cx="74.06" cy="435.17" rx="14.63" ry="20.67"/>
    <ellipse class="cls-15" cx="116.31" cy="434.73" rx="13.17" ry="28.72" transform="translate(-303.54 272.72) rotate(-53.92)"/>
    <g>
      <path class="cls-21" d="m20.24,486.95s36.28,46.49,73.7,0"/>
      <path class="cls-20" d="m20.24,486.95c17.93,19.84,41.87,28.52,64.09,9.61,3.28-2.67,6.82-6.41,9.62-9.61-2.67,3.36-6,7.26-9.25,10.04-21.77,19.74-47.54,10.92-64.45-10.04h0Z"/>
    </g>
    <line class="cls-2" x1="59.36" y1="507.04" x2="59.36" y2="519.64"/>
    <polyline class="cls-2" points="141.62 558.95 131.24 558.95 131.24 535.01"/>
    <path class="cls-20" d="m119.62,509.43c.52,5.31,4.88,7,9.64,6.83.66,0,1.31-.05,1.99-.02-.63.2-1.29.34-1.94.51-4.99,1.13-10.61-1.53-9.68-7.32h0Z"/>
    <path class="cls-20" d="m154.96,468.62c-3.86,12.04,1.07,20.35,13.04,23.81-1.13-.16-2.77-.6-3.89-.92-10.49-3.2-13.83-13.39-9.15-22.89h0Z"/>
    <path class="cls-20" d="m288.19,477.4c9.12,7.44,11.36,19.66,3.26,28.79-1.01,1.16-2.11,2.23-3.26,3.24,9.71-10.22,9.64-21.8,0-32.03h0Z"/>
    <path class="cls-20" d="m163.46,365.43c16.4-9.59,39.21-10.92,51.59,5.67-1.64-1.69-3.27-3.38-5.17-4.75-13.26-10.56-32.07-7.78-46.42-.92h0Z"/>
    <path class="cls-20" d="m221.29,414.06c-4.87,11.24.17,21.81,8.79,29.4,1.22,1.01,2.47,2,3.68,3.05-1.34-.86-2.66-1.78-3.99-2.67-3.12-2.54-6.06-5.41-8.1-8.91-3.71-6.26-4.22-14.56-.38-20.86h0Z"/>
    <path class="cls-20" d="m64.94,419.34c2.02-7.86,9-12.86,17.07-10.28,1,.35,1.97.78,2.92,1.21-1.48-.35-3.05-.81-4.57-.95-7.25-.98-12.56,3.71-15.42,10.02h0Z"/>
    <path class="cls-20" d="m34.74,419.34c2.02-7.86,9-12.86,17.07-10.28,1,.35,1.97.78,2.92,1.21-1.48-.35-3.05-.81-4.57-.95-7.25-.98-12.56,3.71-15.42,10.02h0Z"/>
    <path class="cls-20" d="m281.95,408.78c-.35,7.64.91,17.89,10.14,19.15-9.85.27-12.1-11.51-10.14-19.15h0Z"/>
    <path class="cls-20" d="m123.78,389.25c1.29,6.43,5.38,12.43,11.52,15.04,1.99.99,4.17,1.42,6.33,1.96-1.11-.08-2.24-.15-3.36-.33-8.02-1.24-14.34-8.58-14.49-16.68h0Z"/>
    <path class="cls-1" d="m134.44,562.69s11.61-16.44,24.51,0h-9.94l-2.32-1.1-2.4,1.1h-9.85Z"/>
    <path class="cls-1" d="m122.18,562.65s11.61-16.23,24.51,0h-10.8l-1.46-.81-1.8.81h-10.46Z"/>
    <path class="cls-1" d="m253.11,561.27s11.61-16.44,24.51,0h-9.94l-2.32-1.1-2.4,1.1h-9.85Z"/>
    <path class="cls-1" d="m240.65,561.27s11.61-16.44,24.51,0h-10.8l-1.46-.82-1.8.82h-10.46Z"/>
    <path class="cls-4" d="m131.64,535.73c-1.77-.28,3.05.57,4.39.92s4.4.43,4.4.43v19.96l-2.71-1.11-3.83-.29-2.63.3.39-20.22Z"/>
    <path class="cls-4" d="m141.62,537.5v18.99s2.42-1.2,4.55-1.2c0,0,.97-.42,3.12,0v-18.65s-6.47,1.28-7.66.85Z"/>
    <path class="cls-4" d="m256.81,542.01v11.96c-7.95-.16-7.92.8-7.92.8v-14.87c2.44.92,5.1,1.64,7.92,2.11Z"/>
    <path class="cls-4" d="m269.55,542.46v12.27s-6.24-1.59-7.26-.76c-1.17.96-1.27-5.2-1.09-11.44,1.21.09,2.43.14,3.68.14,1.59,0,3.15-.07,4.67-.21Z"/>
    <path class="cls-20" d="m211.65,471.45c-1.9,12.05,3.49,21.8,15.73,24.53,3.57.87,7.25,1.15,10.92,1.29-4.59.35-9.35.14-13.8-1.23-11.14-3.13-15.72-13.88-12.84-24.59h0Z"/>
    <path class="cls-4" d="m31.49,425.94l-1.39,15.55-2.8,1.27-11.44,7.11c-3.41,3.58-7.51,5.21-10.58,4-3.39-1.33-4.4-5.68-4.54-6.24-2.06-8.41,8.52-20.18,26.94-29.29.82-.4,1.65-.8,2.5-1.2,0,0-.84,8.35,1.3,8.79Z"/>
    <circle class="cls-5" cx="37.6" cy="432.96" r="6.61"/>
    <circle class="cls-7" cx="67.29" cy="433.13" r="6.77"/>
    <circle class="cls-12" cx="36.72" cy="433.13" r="1.98"/>
    <circle class="cls-12" cx="65.3" cy="433.13" r="1.98"/>
    <path class="cls-24" d="m1.43,530.55c33.12-15.47,74.73-17.16,106.58,2.27-4.17-1.95-8.3-3.93-12.65-5.38-3.63-1.38-7.7-2.48-11.47-3.48-27.29-6.5-56.33-3.12-82.46,6.59h0Z"/>
    <path class="cls-17" d="m23.91,527.45c15-9.73,36.68-12.18,51.02,0-1.9-1.22-3.79-2.46-5.84-3.37-14.34-7.07-31.52-3.81-45.18,3.37h0Z"/>
    <path class="cls-17" d="m11.25,522.85c35.48-8.78,76.64-2.4,104.14,22.82-3.71-2.72-7.39-5.46-11.38-7.72-3.3-2.06-7.08-3.92-10.58-5.63-25.52-11.65-54.67-13.94-82.18-9.47h0Z"/>
    <path class="cls-18" d="m41.05,533.32c12.3-12.97,32.8-20.44,49.6-11.97-2.13-.74-4.26-1.5-6.47-1.91-15.59-3.51-31.53,3.69-43.13,13.87h0Z"/>
  </g>
  <ellipse class="cls-16" cx="196.46" cy="94.55" rx="65.74" ry="94.05"/>
  <g>
    <path class="cls-19" d="m176.87,196.13s5.76-4.16,11.13-6.46c2.05-.88,4.03-1.48,5.62-1.48,5.75,0,11.6-.57,17.27,7.94,2.69,4.03,1.94,2.07-2.8-.07-.24-.11-.5-.22-.76-.33-.3-.13-1-2.27-1.33-2.4-1.88-.71-3.83.66-6.63.27-.17-.02-.34-.05-.52-.07-.53-.07-1.31.29-1.64-.17-1.28-1.76-4.03-.18-6.34-.03-1.17.08-2.94-.7-3.68.39-1.77,2.62-6.57,1.21-10.32,2.42Z"/>
    <path class="cls-20" d="m176.87,196.13c4.81-3.26,9.85-6.77,15.64-7.93,9.98-.83,14.93,1.61,20.04,10.25-.08.35-.48-.04-.64-.12-1.39-.93-2.86-1.75-4.4-2.4-.79-.31-.94-1.75-1.47-2.41-.75-.48-1.78-.26-2.65-.14-1.72.44-3.29.39-5.01.25-.41.04-.96.17-1.26-.23-.24-.33-.58-.56-.97-.68-1.64-.38-3.28.49-4.92.64-1.24.24-2.54-.55-3.69.08-2.47,3.24-7.23,1.44-10.68,2.69h0Zm0,0c2.42-.78,5.01-.49,7.48-.91,1.42-.21,2.24-.84,3.12-1.89,1.17-.67,2.53.12,3.75-.12,1.66-.17,3.28-1.05,4.99-.66.42.12.8.38,1.06.73.22.31.7.2,1.1.16,1.72.12,3.28.18,4.99-.27.89-.12,2.07-.4,2.85.21.47.69.66,1.55,1.13,2.22.02.03.17.08.25.12,1.55.65,3.04,1.47,4.44,2.4,0,0,.26.16.26.16.04.02.09.05.11.06.02,0-.05,0-.06.02-.03.01-.05.05-.05.08,0,.02,0,0,0,0-4.31-7.06-8.67-10.62-17.26-10.18-3.4-.24-6.58,1.16-9.55,2.66-2.99,1.52-5.86,3.29-8.62,5.2h0Z"/>
  </g>
  <g>
    <path class="cls-22" d="m219.66,24.08s31.48,32.3,27.92,85.19"/>
    <path class="cls-23" d="m219.66,24.08c18.84,16.69,29.06,42.91,29.45,67.84,0,0-.13,5.83-.13,5.83-.15,3.86-.82,7.71-1.41,11.52-.51-3.84-.51-7.65-1.04-11.46-2.7-26.39-11.89-51.78-26.87-73.73h0Z"/>
  </g>
  <line class="cls-9" x1="197.21" y1="193.35" x2="196.46" y2="513.39"/>
  <path class="cls-14" d="m190.47,188.75l10.43-.14s20.44,18.87,25.48,9.86"/>
  <ellipse class="cls-10" cx="137.09" cy="175.99" rx="57.54" ry="82.31" transform="translate(-33.01 31.66) rotate(-11.77)"/>
  <ellipse class="cls-13" cx="224.69" cy="235.47" rx="71.15" ry="49.73" transform="translate(-44.09 419.01) rotate(-80.67)"/>
  <g>
    <path class="cls-19" d="m133.56,269.21s4.56-5.45,9.2-8.99c1.77-1.35,3.55-2.43,5.08-2.82,5.58-1.41,11.11-3.4,18.69,3.45,3.6,3.25,2.39,1.54-2.73.62-.26-.05-.54-.09-.82-.13-.32-.05-1.53-1.96-1.87-2-1.99-.22-3.55,1.58-6.36,1.89-.17.02-.34.04-.52.06-.53.07-1.2.6-1.64.24-1.67-1.39-3.95.81-6.15,1.53-1.12.36-3.02.05-3.47,1.28-1.07,2.97-6.07,2.79-9.41,4.88Z"/>
    <path class="cls-20" d="m133.56,269.21c3.87-4.35,7.88-8.98,13.22-11.53,9.44-3.26,14.84-2.09,21.92,4.97.12.4-.46.13-.63.08-1.57-.56-3.21-.99-4.86-1.25-.85-.1-1.34-1.47-2.02-1.98-.84-.28-1.79.18-2.6.51-1.54.84-3.11,1.19-4.79,1.48-.39.14-.89.41-1.28.08-.31-.26-.7-.4-1.11-.42-1.68.03-3.06,1.28-4.61,1.83-1.14.54-2.6.1-3.56.98-1.6,3.74-6.65,3.18-9.69,5.23h0Zm0,0c2.15-1.35,4.73-1.7,7.03-2.72,1.32-.55,1.97-1.37,2.56-2.6.97-.94,2.48-.5,3.6-1.03,1.57-.57,2.92-1.82,4.67-1.86.44.01.87.17,1.21.45.29.25.73.02,1.11-.12,1.7-.31,3.23-.64,4.77-1.49.84-.34,1.9-.89,2.81-.5.62.55,1.02,1.34,1.64,1.87.03.02.19.04.27.05,1.66.25,3.31.68,4.9,1.24,0,0,.29.09.29.09.04.01.1.03.12.03.02,0-.05,0-.06.03-.02.02-.04.06-.02.09,0,.02,0,0,0,0-5.91-5.79-11.01-8.17-19.24-5.63-3.36.6-6.09,2.74-8.61,4.92-2.53,2.21-4.87,4.62-7.08,7.16h0Z"/>
  </g>
  <g>
    <path class="cls-19" d="m195.7,307.39s4.93-2.14,9.27-2.97c1.65-.32,3.22-.44,4.39-.18,4.25.93,8.66,1.46,11.47,8.66,1.33,3.41,1.09,1.85-2.06-.51-.16-.12-.33-.24-.51-.37-.2-.14-.37-1.84-.59-1.99-1.27-.83-2.93-.13-4.94-.88-.12-.05-.25-.09-.37-.13-.38-.14-1.02,0-1.19-.39-.66-1.51-2.95-.79-4.68-1.05-.88-.13-2.06-.99-2.78-.31-1.73,1.65-5.05-.17-8.02.11Z"/>
    <path class="cls-20" d="m195.7,307.39c4.08-1.64,8.37-3.42,12.85-3.34,1.9.27,3.76.7,5.57,1.35,4.13,1.45,6.3,5.56,7.6,9.46,0,.11-.11.19-.21.13-.9-.85-1.76-1.75-2.77-2.47-.18-.14-.43-.29-.59-.45-.19-.38-.22-.8-.31-1.19-.07-.2-.09-.7-.3-.78-1.08-.62-2.45-.29-3.7-.54-.63-.07-1.23-.4-1.83-.49-.28-.04-.72,0-.91-.39-.12-.28-.33-.5-.6-.65-1.14-.54-2.5-.17-3.73-.32-.96-.02-1.79-.81-2.73-.54-2.38,2-5.58-.12-8.33.24h0Zm0,0c2.74-.4,5.94,1.64,8.28-.36.98-.31,1.86.5,2.8.52,1.26.15,2.6-.25,3.8.32.29.16.54.42.67.72.1.25.46.25.77.28,1.23.36,2.42.66,3.73.61.68.05,1.61.04,2.09.63.19.51.25,1.12.4,1.63.05.18.07.21.23.31,1.04.73,2.01,1.58,2.9,2.5,0,0,.17.16.17.16l.07.06s-.13,0-.14.08c-1.99-5.78-4.69-9.27-11.08-10.29-2.46-.77-5.04-.19-7.48.41-2.46.63-4.86,1.47-7.22,2.43h0Z"/>
  </g>
  <path class="cls-14" d="m145.46,257.01l10.35-1.23s22.3,16.63,26.37,7.14"/>
  <path class="cls-14" d="m206.47,303.55l7.8,1.17s12.94,16.59,17.81,10.48"/>
  <g>
    <path class="cls-22" d="m149.79,108.4s32.22,18.33,35.06,56.4"/>
    <path class="cls-23" d="m149.79,108.4c21.46,9.07,37.21,32.9,35.06,56.4-5.45-22.9-17.55-40.89-35.06-56.4h0Z"/>
  </g>
  <g>
    <path class="cls-22" d="m236.37,166.73s25.64,14.01,37.1,48.95"/>
    <path class="cls-23" d="m236.37,166.73c18.16,7.06,32.44,26.22,36.4,45.03.26,1.3.51,2.61.69,3.92-1.44-2.24-2.52-4.6-3.89-6.85-8.78-15.77-19.73-29.99-33.21-42.09h0Z"/>
  </g>
  <line class="cls-8" x1="154.23" y1="261.29" x2="196.97" y2="321.52"/>
  <line class="cls-8" x1="211.18" y1="308.64" x2="197.99" y2="319.86"/>
</svg>