<?xml version="1.0" encoding="UTF-8"?><svg id="a" xmlns="http://www.w3.org/2000/svg" viewBox="0 0 83.3 71.19"><defs><style>.b{fill:#63606c;}.c{fill:#706f6f;stroke:#3c3c3b;stroke-linecap:round;stroke-miterlimit:10;stroke-width:.25px;}</style></defs><path class="c" d="M16.86,3.59L7.09,13.36c-1.71,1.71-2.88,3.9-3.35,6.28L.47,36.22c-.78,3.96-.23,8.06,1.57,11.67l7.88,15.86c2.23,4.48,6.8,7.31,11.8,7.31h14.22c1.42,0,2.83-.27,4.15-.8l9-3.6c2.53-1.01,5.23-1.53,7.95-1.52l12.92,.03c3.31,0,6.5-1.3,8.85-3.64l1.62-1.61c2.2-2.19,3.17-5.35,2.56-8.4l-4.78-24.17c-.43-2.19-1.52-4.21-3.11-5.77l-15.15-14.89c-2.35-2.31-5.48-3.65-8.77-3.76l-7.24-.25c-1.55-.05-3.1-.2-4.63-.45L27.09,.27c-3.74-.6-7.55,.63-10.23,3.31Z"/><path class="b" d="M3.52,20.73s12.75,27.7,29.6,19.05c7.93-4.07,20.84,8.56,23.79,9.22,12.16,2.75-2.82,16.35-2.82,16.35,0,0-4.09,.72-5.33,1.45s-7.77,3.11-7.77,3.11c0,0-2.36,1.31-5.04,1.16s-14.99,0-14.99,0c0,0-7.31,.18-11.03-7.31C6.2,56.27,1.11,46.62,.67,44.19S0,38.61,1.28,32.14l2.25-11.41Z"/><path class="b" d="M80.11,36.92s-14.52-13.44-23.33-5.79c-4.15,3.61-13.98-.68-15.87-.49-7.8,.78-.91-9.14-.91-9.14,0,0,2.36-1.13,2.99-1.75s4.2-3.07,4.2-3.07c0,0,1.22-1.13,2.87-1.54s9.07-2.75,9.07-2.75c0,0,4.4-1.44,7.85,1.83,3.45,3.27,8.08,7.42,8.73,8.62,.65,1.2,2.37,3.18,2.63,6.83,.27,3.65,1.77,7.25,1.77,7.25Z"/></svg>