<?xml version="1.0" encoding="UTF-8"?><svg id="a" xmlns="http://www.w3.org/2000/svg" viewBox="0 0 108.84 220.45"><defs><style>.b{fill:#ff6e09;}.c{fill:none;stroke:#7ffffd;stroke-linecap:round;stroke-width:.25px;}.c,.d{stroke-miterlimit:10;}.d{fill:#ff274a;stroke:#ff710d;}</style></defs><path class="d" d="M98.13,124.15c-.68-6.03,2.37-8.89,4.34-10.09,0-.96,.08-1.95,.21-3,.39-3.12,1.23-6.13-.28-9.06-1.3-2.53-3.46-4.53-5.02-6.89-.68-1.03-1.23-2.07-1.67-3.14-2.65,.27-4.14-3.27-4.14-3.27l-.06-.11c-1.01-.31-1.98-.72-2.88-1.25-.55,.31-.96,.87-.93,1.63l.26,6.1c.04,.83,.47,1.58,1.13,2.11,7.53,6,4.71,14.08,2.53,18.15-.66,1.24-2.46,1.29-3.24,.12-17.25-26.26-11.12-33.99-11.54-35.63-.25-.98,3.06-8.26,5.9-14.24-.6-1.26-1.1-2.55-1.4-3.9-.9-4.09-.65-7.32,.01-11.4,.15-.95,.5-1.87,.96-2.73-.82-2.37-1.54-4.72-2.1-6.97-1.44-5.71-1.93-11.46-1.15-16.75,0-.1-.02-.21-.02-.31-.01-2.54-.03-5.2-.38-7.78-1.62-3.36-3.64-6.8-4.95-9.68-1.58-1.17-3.43-2.05-5.37-3.06-1.49-.78-2.97-1.49-4.47-2.09,1.16,2.93,2.29,5.86,3,8.93,.27,1.16,.46,2.29,.61,3.4,1.92,3.11,3.48,6.4,3.86,10.05,1.03,9.81-2.76,23.35-10.87,29.48-.92,.7-1.83,.98-2.68,.97-2.59,2.55-5.68,4.84-9.25,6.76-.67,.36-1.34,.63-2.02,.95-3.27,4.06-6.96,7.67-11.63,10.37-1.28,.74-2.64,1.33-4.03,1.85-7.94,7.38-17.51,13.4-22.97,22.3-3.91,6.37-1.22,13.18-.7,20.18,.18,2.48,.1,4.8-.11,7.07,.32,1.21,.49,2.46,.52,3.72,.64,.9,.95,2.01,.79,3.14l-.09,.62c-.07,.49-.21,.97-.42,1.43l-2.15,4.69c-.8,1.73-1.26,3.6-1.37,5.49l-.49,8.59c-.08,1.45-.39,2.88-.92,4.24l-1.67,4.3c-.55,1.4-.82,2.89-.8,4.39l.22,17.05c.07,10.17,8.63,15.91,10.88,17.25,.36,.21,.62,.56,.76,.94,6.26,17.41,17.66,16.4,18.03,16.4,.37,0,8.81-2.11,15.3,2.44,6.09,4.27,17.49,.53,18.87,.05,.1-.03,.16-.06,.25-.11,.85-.46,6.27-3.26,12.66-3.52,6.96-.28,9.53-6.1,9.53-6.1,0,0,11.82-16.38,18.68-31.75,6.86-15.38-1.25-28.29-5.96-34.96-4.7-6.67-.62-8.63-1.61-17.38Z"/><path class="c" d="M41.89,98.4s-3.25,16.38-23.25,26.71c0,0-2.26-12.3,23.25-26.71Z"/><path class="b" d="M6.04,107.11c.27,2.47,.72,4.98,1.01,7.52,.84,1.4,2.08,2.79,3.85,4.16v-.48s-.63-15.61,9.49-26.3c0,0-12.01,6.84-14.36,15.11Z"/><path class="b" d="M53.84,112.09s-10.47,7.87-19.07,10.1c-8.6,2.23-12.7,9.34-12.7,9.34,0,0,11.62-4.03,13.4-5.57,.23-.2,.47-.39,.76-.49,2.73-.95,15.08-5.64,17.6-13.38Z"/><path class="b" d="M57.77,53.75c-2.58,2.55-5.64,4.85-9.21,6.76-.67,.36-1.34,.63-2.02,.95-1.92,2.38-3.99,4.6-6.31,6.58,8.58-3.32,14.5-9.19,18.32-14.35-.27,.05-.53,.07-.79,.07Z"/><path class="b" d="M67.39,64.57s-14.51,22.55-34.69,34.99c-20.17,12.44-18.07,29.22-18.07,29.22l-5.53,8.97s3.87-8.61,1.82-12.64c-.43-.84-1.84-1.77-3.66-2.94-.02,.38-.1,.75-.13,1.13,.32,1.21,.48,2.46,.5,3.72,.48,.37,.77,.59,.77,.59,0,0,.77,3.04-.85,5.3,0,0-3.42,5.5-3.22,10.41s-.59,9.1-.59,9.1l.75,4.58,3.11-3.92s4.59-10.96,4.56-14.88,8.75-10.74,8.75-10.74c0,0,18.8-12.74,21.24-19.94,2.44-7.2,2.41-12.15,2.41-12.15l3.21-3.37s2.76,5.1-1.78,13.39c0,0,10.59-5.39,5.55-16.46,0,0,16.66-18.63,15.85-24.37Z"/><path class="b" d="M73.71,6.05c-.45-.33-.93-.64-1.42-.94-.66,3.27-1.39,5.68-1.39,5.68,4.9,2.63,7.68,8.08,7.68,8.08,.23-1.42,.02-2.79-.3-3.93-1.55-3.11-3.37-6.24-4.58-8.9Z"/><path class="b" d="M74.33,20.56c-1.24-2.06-3.67-5.56-6.41-6.62,1.72,2.91,3.09,5.97,3.44,9.36,.05,.5,.08,1.02,.11,1.54,.14,.2,.28,.41,.4,.6,.93,1.39,1.53,2.96,1.76,4.61l.34,2.37,1.03-8.71c.13-1.09-.1-2.19-.67-3.14Z"/><path class="b" d="M78.67,15.73c-.64-1.34-1.34-2.69-2.05-4.02-5.31-6.17-.78,3.18-.78,3.18,0,0,2.02,1.86,3.21,7.35-.02-2.15-.08-4.35-.37-6.51Z"/><path class="b" d="M98.52,139.55s-2.08-2.47-.33-10.44c0,0-1.77-12.4,4.28-15.3,.02-.88,.09-1.8,.21-2.75,.39-3.12,1.23-6.13-.28-9.06-1.3-2.53-3.46-4.53-5.02-6.89-.7-1.06-1.26-2.13-1.71-3.24-1.17-.16-2.52-1.49-3.8-3.17-1.53-.43-2.98-1.09-4.26-2l.44,9.43s7.13,4.89,5.95,10.75c-1.19,5.87-.23,4.46-3.97,11.01,0,0-18.02-24.48-13.17-38.08,2.13-5.98,4.19-10.83,5.83-14.4-.56-1.21-1.04-2.45-1.32-3.74-.07-.34-.1-.65-.16-.98-.96,3.42-2.84,8.27-6.51,15.02,0,0-5.92,19.36,3.01,29.28,0,0-16.76-5.62-8.16-33.13,0,0-19.96,27.03,9.54,41.66,0,0,10.2,2.19,7.61,22.9l3.52,5.94v-3.54l-1.2-2.33,2.08-10.96,1.3,9.41s12.72,19.48,12.28,28.18c-.44,8.7-5.67,18.79-11.91,28.01-6.24,9.22-9.67,16.64-9.67,16.64l3.28,1.59s21.25-32.34,21.14-38.17c-.1-5.83,3.3-7.39-2.64-21.06l-6.36-10.57Z"/><path class="b" d="M80.98,53.01c.1-.88,.23-1.79,.38-2.74,.15-.95,.5-1.86,.96-2.73-.82-2.37-1.54-4.73-2.1-6.97-.25-1-.47-2-.66-3.01-.19,2.08-.46,4.29-.87,6.73,0,0-2.52,4.71,2.3,8.72Z"/><path class="b" d="M3.74,152.43s-1.39,5.64-2.39,6.89c-1.01,1.25-.82,6.2-.82,6.2l.18,13.77s-1.21,11.18,9.9,18.25c1,.64,1.75,1.58,2.19,2.66,1.91,4.71,8.23,17.17,20.85,15.05,1-.17,2.01-.28,3.03-.21,2.4,.15,6.7,.8,9.81,3.37,4.54,3.76,18.23-.48,18.23-.48,0,0,6.19-3.44,15.19-3.93,0,0,5.21-1.8,6.47-4.64s-2.93-2.32-2.93-2.32c0,0-7.15,4.45-9.39,3.74-1.48-.47-9.84-3.26-11.38-2.16-1.55,1.1-1.4,4.9-3.2,4.37-1.01-.3-3.67-.45-5.81-.53-1.87-.07-3.7-.48-5.4-1.25-3.12-1.4-8.8-3.45-13.67-2.47-7.14,1.43-14.46,2.51-17.65-9.67-2.07-7.91-5.89-10.56-8.31-11.45-2.09-.76-3.64-2.53-4.23-4.62-.84-2.98-1.17-7.55,1.1-13.69,4.4-11.86,2.28-17.86,2.28-17.86l-4.03,.98Z"/></svg>